<svg xmlns="http://www.w3.org/2000/svg" width="155" height="32" viewBox="0 0 155 32">
  <path fill="#161D5B" d="M59.488,24.86 C59.584,23.972 59.272,23.54 58.456,23.54 L52.288,23.54 C51.52,23.54 50.872,24.164 50.872,24.98 C50.872,25.724 51.544,26.396 52.288,26.396 L55.552,26.396 C54.832,28.196 53.368,29.036 51.472,29.036 C48.688,29.036 46.504,26.78 46.504,23.996 C46.504,21.188 48.688,18.908 51.472,18.908 C52.576,18.908 53.608,19.22 54.376,19.796 C54.976,20.228 55.864,20.204 56.488,19.676 C57.16,19.076 57.256,17.708 56.632,17.228 C55.24,16.124 53.512,15.5 51.472,15.5 C46.72,15.5 43,19.292 43,23.996 C43,28.652 46.72,32.444 51.472,32.444 C55.864,32.444 58.912,30.116 59.488,24.86 Z M64.936,15.692 C64.048,15.692 63.568,16.364 63.544,17.18 L63.544,30.74 C63.568,31.556 64.048,32.228 64.936,32.228 L72.784,32.228 C73.552,32.228 74.224,31.484 74.224,30.692 C74.224,29.852 73.576,29.156 72.784,29.156 L67.048,29.156 L67.048,25.604 L71.824,25.604 C72.592,25.604 73.264,24.884 73.264,24.092 C73.264,23.252 72.616,22.58 71.824,22.58 L67.048,22.58 L67.048,18.788 L72.568,18.788 C73.336,18.788 74.008,18.044 74.008,17.252 C74.008,16.388 73.36,15.692 72.568,15.692 L64.936,15.692 Z M87.4,28.316 L88.528,31.34 C88.84,32.156 89.848,32.54 90.736,32.252 C91.6,31.964 92.08,30.884 91.792,30.068 L87.016,17.204 C86.632,16.196 85.864,15.572 84.64,15.572 C84.64,15.572 84.496,15.572 84.496,15.572 C83.272,15.572 82.504,16.196 82.12,17.204 L77.344,30.068 C77.056,30.884 77.536,31.964 78.4,32.252 C79.288,32.54 80.296,32.156 80.608,31.34 L81.736,28.316 L87.4,28.316 Z M82.888,25.268 L84.568,19.508 L86.248,25.268 L82.888,25.268 Z M102.52,18.788 C103.84,18.788 104.512,20.084 104.512,21.116 C104.512,22.196 103.792,23.444 102.424,23.444 L99.28,23.444 L99.28,18.788 L102.52,18.788 Z M108.016,21.02 C107.968,18.332 106.216,15.692 102.52,15.692 L97.456,15.692 C96.4,15.692 95.8,16.508 95.776,17.492 L95.776,30.716 C95.776,31.58 96.616,32.348 97.528,32.348 C98.488,32.348 99.28,31.604 99.28,30.716 L99.28,26.396 L100.888,26.396 L104.056,31.628 C104.512,32.348 105.568,32.564 106.336,32.108 C107.152,31.628 107.464,30.548 106.984,29.828 L104.296,25.964 C106.744,25.244 107.944,23.18 108.016,21.02 Z M111.904,28.892 C112.624,31.028 114.736,32.444 117.664,32.444 C120.592,32.444 123.568,30.884 123.616,27.596 C123.664,26.012 123.088,23.756 119.08,22.604 L117.112,22.028 C115.504,21.572 115.336,20.78 115.336,20.348 C115.336,19.364 116.248,18.644 117.472,18.644 C118.216,18.644 119.128,18.908 119.824,19.796 C120.4,20.516 121.168,20.756 122.032,20.204 C122.632,19.82 122.968,19.052 122.56,18.26 C121.672,16.532 119.896,15.5 117.52,15.5 C114.352,15.5 111.832,17.492 111.832,20.444 C111.832,21.932 112.456,24.02 116.104,25.148 L118.096,25.7 C119.776,26.18 120.112,26.828 120.088,27.572 C120.064,28.652 119.08,29.324 117.664,29.324 C116.176,29.324 115.36,28.508 115,27.764 C114.664,27.068 113.776,26.564 112.84,26.924 C112.024,27.236 111.64,28.052 111.904,28.892 Z M129.4,15.692 C128.512,15.692 128.032,16.364 128.008,17.18 L128.008,30.74 C128.032,31.556 128.512,32.228 129.4,32.228 L137.248,32.228 C138.016,32.228 138.688,31.484 138.688,30.692 C138.688,29.852 138.04,29.156 137.248,29.156 L131.512,29.156 L131.512,25.604 L136.288,25.604 C137.056,25.604 137.728,24.884 137.728,24.092 C137.728,23.252 137.08,22.58 136.288,22.58 L131.512,22.58 L131.512,18.788 L137.032,18.788 C137.8,18.788 138.472,18.044 138.472,17.252 C138.472,16.388 137.824,15.692 137.032,15.692 L129.4,15.692 Z M152.968,18.788 C153.712,18.788 154.408,18.044 154.408,17.252 C154.408,16.388 153.76,15.692 152.968,15.692 L143.128,15.692 C142.336,15.692 141.688,16.388 141.688,17.252 C141.688,18.044 142.384,18.788 143.128,18.788 L146.296,18.788 L146.296,30.716 C146.296,31.58 147.136,32.348 148.048,32.348 C149.008,32.348 149.8,31.604 149.8,30.716 L149.8,18.788 L152.968,18.788 Z M16.6378099,8 C17.0664802,8 17.4401302,8.29398057 17.5440504,8.71301229 L18.0108751,10.5953652 C18.0507214,10.756035 18.0469779,10.9173819 18.0071888,11.0667403 C19.0610442,11.2719244 20.0713224,11.6065603 21.0196966,12.0525668 C21.0540847,11.9561064 21.1060653,11.8648662 21.1742673,11.7831966 L21.2885649,11.668414 L22.7643398,10.4220286 C23.0517975,10.1792523 23.4504739,10.1362369 23.7779814,10.2993519 L23.9134527,10.3818971 L25.7545913,11.7296899 C26.0580426,11.9518293 26.1961103,12.3311136 26.1184459,12.6908002 L26.0718062,12.8432365 L25.3513697,14.6425621 C25.3228095,14.7138925 25.2856789,14.7814264 25.2408084,14.8436529 C25.1904774,14.913452 25.132407,14.974234 25.0686445,15.0256722 C25.7872992,15.8014439 26.4143149,16.6682754 26.9312439,17.6053052 C26.9974074,17.5581964 27.0721309,17.5217357 27.1528694,17.4953036 C27.2254714,17.4715352 27.3006914,17.4568236 27.3768464,17.4514979 L29.2978756,17.3171569 C29.7255171,17.2872511 30.1184726,17.5544589 30.250939,17.965235 L30.9541913,20.1460095 C31.0866577,20.5567857 30.9246306,21.0056834 30.5612154,21.2347535 L28.9286998,22.2637706 C28.7873991,22.3528361 28.6315905,22.3991657 28.4761704,22.4062164 C28.5387755,22.9272837 28.5710177,23.4598462 28.5710177,24 C28.5710177,24.5401538 28.5387755,25.0727163 28.4761254,25.5958385 C28.5797688,25.599169 28.6835648,25.6208701 28.7831132,25.6613573 L28.9286998,25.7362294 L30.5612154,26.7652465 C30.8792037,26.9656829 31.0430042,27.3344247 30.9902437,27.6986663 L30.9541913,27.8539905 L30.250939,30.034765 C30.1350309,30.3941941 29.8196858,30.6437037 29.4561742,30.6804305 L29.2978756,30.6828431 L27.3768464,30.5485021 C27.3006914,30.5431764 27.2254714,30.5284648 27.1528694,30.5046964 C27.0721309,30.4782643 26.9974074,30.4418036 26.9296161,30.3971278 C26.4143149,31.3317246 25.7872992,32.1985561 25.0678161,32.9774283 C25.132407,33.025766 25.1904774,33.086548 25.2408084,33.1563471 C25.2856789,33.2185736 25.3228095,33.2861075 25.3513697,33.3574379 L26.0718062,35.1567635 C26.232183,35.5573125 26.1013928,36.0164365 25.7545913,36.2703101 L23.9134527,37.6181029 C23.5666512,37.8719765 23.0928629,37.85543 22.7643398,37.5779714 L21.2885649,36.331586 C21.162444,36.2250689 21.0712788,36.0921239 21.0163592,35.9475197 C20.0713224,36.3934397 19.0610442,36.7280756 18.0054129,36.9346563 C18.0331229,37.0332975 18.0440233,37.1378877 18.0364051,37.2442601 L18.0108751,37.4046348 L17.5440504,39.2869877 C17.4531202,39.6536405 17.1556781,39.9245509 16.7955628,39.9865496 L16.6378099,40 L14.3620375,40 C13.986951,40 13.6539894,39.7749211 13.5069913,39.4379329 L13.455797,39.2869877 L12.9889722,37.4046348 C12.970466,37.330013 12.9611082,37.2533868 12.9611082,37.1764706 C12.9611082,37.0921479 12.9721139,37.0104152 12.9927569,36.9326512 C11.9389476,36.7281038 10.9288013,36.3935313 9.98053995,35.9476162 C9.9555041,36.0223807 9.91665157,36.0952286 9.86732837,36.1636302 C9.82245787,36.2258567 9.77018593,36.2823065 9.71168203,36.3317168 L8.23590713,37.5781022 C7.90738399,37.8555608 7.4335957,37.8721073 7.08679418,37.6182337 L5.2456556,36.2704409 C4.89885409,36.0165673 4.7680639,35.5574433 4.9284407,35.1568943 L5.64887723,33.3575687 C5.71101015,33.2023887 5.80954836,33.0730045 5.93057458,32.975377 C5.21254816,32.1985561 4.58553251,31.3317246 4.06860347,30.3946948 C3.98447237,30.4528343 3.88841353,30.496553 3.78447207,30.522683 L3.62315356,30.5482905 L1.7021244,30.6826315 C1.32793813,30.708799 0.980308282,30.507489 0.810505349,30.1815647 L0.749061047,30.0345533 L0.0458086863,27.8537789 C-0.0700994055,27.4943497 0.0394640618,27.1057338 0.312125834,26.8607368 L0.438784644,26.7650349 L2.07130022,25.7360178 C2.13601777,25.6952246 2.20545428,25.6625787 2.27805628,25.6388102 C2.35982997,25.6120392 2.44261301,25.5972451 2.52453552,25.5934678 C2.46107187,25.0727163 2.42882969,24.5401538 2.42882969,24 C2.42882969,23.4598462 2.46107187,22.9272837 2.52372198,22.4041615 C2.44261301,22.4027549 2.35982997,22.3879608 2.27805628,22.3611898 C2.20545428,22.3374213 2.13601777,22.3047754 2.07130022,22.2639822 L0.438784644,21.2349651 C0.0753693699,21.005895 -0.0866577043,20.5569973 0.0458086863,20.1462211 L0.749061047,17.9654467 C0.881527437,17.5546705 1.27448294,17.2874628 1.7021244,17.3173685 L3.62315356,17.4517095 C3.78937275,17.4633335 3.94240682,17.5180959 4.07223066,17.604389 C4.58553251,16.6682754 5.21254816,15.8014439 5.93203128,15.0225717 C5.850376,14.9588542 5.77936282,14.880111 5.72268375,14.788716 L5.64887723,14.6424313 L4.9284407,12.8431057 C4.788111,12.4926253 4.87070603,12.0972985 5.12587735,11.8338675 L5.2456556,11.7295591 L7.08679418,10.3817663 C7.39024551,10.1596269 7.79092109,10.1445279 8.10643339,10.3300997 L8.23590713,10.4218978 L9.71168203,11.6682832 C9.77018593,11.7176935 9.82245787,11.7741433 9.86732837,11.8363698 C9.91665157,11.9047714 9.9555041,11.9776193 9.9841911,12.0529723 C10.9288013,11.6064687 11.9389476,11.2718962 12.9944345,11.0653437 C12.9721139,10.9895848 12.9611082,10.9078521 12.9611082,10.8235294 C12.9611082,10.7466132 12.970466,10.669987 12.9889722,10.5953652 L13.455797,8.71301229 C13.5597172,8.29398057 13.9333672,8 14.3620375,8 L16.6378099,8 Z M15.4999237,15.6235294 C10.912525,15.6235294 7.19276271,19.3732797 7.19276271,24 C7.19276271,28.6267203 10.912525,32.3764706 15.4999237,32.3764706 C20.0873224,32.3764706 23.8070847,28.6267203 23.8070847,24 C23.8070847,19.3732797 20.0873224,15.6235294 15.4999237,15.6235294 Z" transform="translate(0 -8)"/>
</svg>
