<svg xmlns="http://www.w3.org/2000/svg" width="79" height="20" viewBox="0 0 79 20">
  <path d="M27.6448125 12.9411533C27.6596625 13.1636861 27.5497122 13.375993 27.3596502 13.4917829 27.1695883 13.6075728 26.9310498 13.6075728 26.7409879 13.4917829 26.5509259 13.375993 26.4409756 13.1636861 26.4558256 12.9411533L26.4558256 7.05084357C26.4409756 6.8283108 26.5509259 6.61600383 26.7409879 6.50021395 26.9310498 6.38442407 27.1695883 6.38442407 27.3596502 6.50021395 27.5497122 6.61600383 27.6596625 6.8283108 27.6448125 7.05084357L27.6448125 12.9411533zM35.3479576 7.05084357L35.3479576 12.4342879C35.3479576 13.1625734 34.975568 13.5707335 34.3850645 13.5707335L34.3398457 13.5707335C33.7759415 13.5707335 33.5099489 13.231934 33.2758754 12.7330717L32.0762489 10.2894468 31.0122785 7.7684583 31.0415377 10.2120832 31.0415377 12.9331501C31.0415377 13.2631777 30.7747785 13.5307178 30.4457143 13.5307178 30.1166502 13.5307178 29.849891 13.2631777 29.849891 12.9331501L29.849891 7.54970586C29.849891 6.88010996 30.2196207 6.41059252 30.8686426 6.41059252L30.9165212 6.41059252C31.5176644 6.41059252 31.7650375 6.74939204 32.0044309 7.24825432L33.1854379 9.67320519 34.1962097 12.0261278 34.1669505 9.77191056 34.1669505 7.05084357C34.1669505 6.8373532 34.2805138 6.64007994 34.4648622 6.53333475 34.6492106 6.42658955 34.8763372 6.42658955 35.0606856 6.53333475 35.245034 6.64007994 35.3585973 6.8373532 35.3585973 7.05084357L35.3479576 7.05084357zM40.1251844 12.9331501C40.1251844 13.2631777 39.8584251 13.5307178 39.529361 13.5307178 39.2002968 13.5307178 38.9335376 13.2631777 38.9335376 12.9331501L38.9335376 7.59772468 37.4546188 7.59772468C37.1488694 7.57696801 36.9114359 7.32217573 36.9114359 7.01482945 36.9114359 6.70748317 37.1488694 6.4526909 37.4546188 6.43193422L41.6014432 6.43193422C41.9071927 6.4526909 42.1446261 6.70748317 42.1446261 7.01482945 42.1446261 7.32217573 41.9071927 7.57696801 41.6014432 7.59772468L40.1251844 7.59772468 40.1251844 12.9331501zM43.7081044 12.7330717L43.7081044 7.20023549C43.7081044 6.68269922 43.974097 6.39992167 44.4901226 6.41326023L47.9214269 6.41326023C48.0731307 6.41528461 48.2175549 6.47882019 48.3217863 6.58938776 48.4260178 6.69995532 48.4811762 6.8481347 48.4746915 7.00015703 48.4812242 7.15143567 48.425831 7.29882087 48.3213572 7.40813417 48.2168835 7.51744747 48.0724053 7.57919251 47.9214269 7.5790507L44.8917714 7.5790507 44.8917714 9.29438998 47.5703167 9.29438998C47.8773453 9.29439 48.1262411 9.54401451 48.1262411 9.85194194 48.1262411 10.1598694 47.8773453 10.4094939 47.5703167 10.4094939L44.8917714 10.4094939 44.8917714 12.3836013 47.9214269 12.3836013C48.0736137 12.3855995 48.2184658 12.4495009 48.3227782 12.5606573 48.4270906 12.6718137 48.4819178 12.8206926 48.4746915 12.9731658 48.4812478 13.1242011 48.425777 13.2713281 48.3212195 13.3802249 48.216662 13.4891217 48.0721614 13.5502652 47.9214269 13.54941L44.4635233 13.54941C43.9661172 13.5520595 43.6894849 13.2612788 43.7081044 12.7330717L43.7081044 12.7330717zM54.9675703 13.5814043C55.116271 13.5084751 55.2287874 13.3777559 55.2790176 13.2195713 55.3292478 13.0613868 55.3128264 12.8894844 55.2335629 12.7437425L54.0419162 10.529541C55.0234288 10.3294625 55.5953128 9.57183211 55.5953128 8.5447627 55.5953128 7.47767761 54.9489509 6.41059252 53.3928943 6.41059252L51.1346173 6.41059252C50.6292314 6.38925082 50.3525991 6.67736379 50.3525991 7.19756777L50.3525991 12.943821C50.3525991 13.1573114 50.4661623 13.3545846 50.6505107 13.4613298 50.8348592 13.568075 51.0619858 13.568075 51.2463342 13.4613298 51.4306826 13.3545846 51.5442459 13.1573114 51.5442458 12.943821L51.5442458 10.7696351 52.7997308 10.7696351 54.1296937 13.3306393C54.206889 13.4760958 54.3389523 13.5844874 54.4963885 13.6316059 54.6538246 13.6787244 54.8235185 13.6606445 54.9675703 13.5814043L54.9675703 13.5814043zM53.4327932 9.64119264L51.5442458 9.64119264 51.5442458 7.57638298 53.4221535 7.57638298C53.6947319 7.56009432 53.9606975 7.66464582 54.1496417 7.86235976 54.3385858 8.0600737 54.4314557 8.33101299 54.4036661 8.60345238 54.4036661 9.2143586 54.0711754 9.64119264 53.4327932 9.64119264L53.4327932 9.64119264zM58.0663839 13.0211847C57.3508639 12.3542565 57.0263529 11.3085131 57.0263529 9.99066301 57.0263529 8.67281292 57.3402242 7.62973724 58.0477644 6.97081219 58.5655629 6.50999033 59.2420943 6.26978372 59.9336518 6.3012163 61.1714351 6.19781217 62.2886472 7.04478219 62.5270795 8.26732058 62.5645004 8.43036191 62.5323739 8.60166863 62.4384469 8.73993285 62.3445199 8.87819707 62.1973168 8.9708704 62.0323333 8.99560616 61.6985754 9.0405363 61.3849822 8.82510188 61.3061735 8.49674388 61.2198779 8.22591118 61.0660646 7.9816604 60.859306 7.78713229 60.5963628 7.5561529 60.2533232 7.43827715 59.9043926 7.45900362 59.5027326 7.44155868 59.1121104 7.59342833 58.8271227 7.87783452 58.4281338 8.29666542 58.2525787 9.0462927 58.2525787 9.99066301 58.2525787 10.9350333 58.4148342 11.6766575 58.8351025 12.0954884 59.4269106 12.6431434 60.3350186 12.6557929 60.9417637 12.1248332 61.0943376 11.9727174 61.2146716 11.7912343 61.2955338 11.5912906 61.37786 11.2755734 61.6879153 11.0760002 62.008394 11.1324441 62.1689249 11.1671293 62.307672 11.2675774 62.3910422 11.4094683 62.4744124 11.5513591 62.4948047 11.7217563 62.4472817 11.8794036 62.3033361 12.3902497 61.9993068 12.8410815 61.5801459 13.1652412 61.0952668 13.5134477 60.5082166 13.6890454 59.9123724 13.6641034 59.236754 13.7011143 58.5737188 13.4701932 58.0663839 13.0211847L58.0663839 13.0211847zM66.8175398 6.3012163C64.7481175 6.3012163 63.870342 7.75778745 63.870342 9.99066301 63.870342 12.2955668 64.7401378 13.6801097 66.8175398 13.6801097 68.8949419 13.6801097 69.7434582 12.2955668 69.7434582 9.99066301 69.7434582 7.6857592 68.8656827 6.3012163 66.8175398 6.3012163L66.8175398 6.3012163zM66.8175398 7.46967447C67.9533281 7.46967447 68.5438317 8.29666542 68.5438317 9.99066301 68.5438317 11.6846606 67.9320487 12.5143193 66.8069001 12.5143193 65.6817515 12.5143193 65.1018877 11.6873283 65.1018877 9.99066301 65.1018877 8.29399771 65.700371 7.46967447 66.8069001 7.46967447L66.8175398 7.46967447zM79 12.9331501C79 13.2631777 78.7332408 13.5307178 78.4041766 13.5307178 78.0751125 13.5307178 77.8083532 13.2631777 77.8083532 12.9331501L77.8083532 10.2654374 77.8376124 7.6644175 77.0077156 10.3054531 76.1698389 12.9091407C76.0908855 13.2918118 75.747926 13.5613438 75.3585616 13.5467241 74.9622263 13.5597169 74.6131524 13.2870461 74.5286647 12.8984699L73.6801484 10.3001177 72.8821706 7.71243633 72.9114298 10.2734406 72.9114298 12.9411533C72.9114298 13.2711808 72.6446706 13.5387209 72.3156065 13.5387209 71.9865423 13.5387209 71.7197831 13.2711808 71.7197831 12.9411533L71.7197831 7.60572782C71.7197831 6.8667714 72.1001525 6.43726965 72.7677938 6.43726965 73.4354352 6.43726965 73.7493065 6.78674001 73.9488009 7.42432336L74.8265764 10.1453903 75.3585616 12.0127893 75.8905467 10.1453903 76.7683222 7.42432336C76.9678167 6.78674001 77.3003074 6.43726965 77.9413495 6.43726965 78.5823916 6.43726965 78.9787206 6.85610054 78.9787206 7.60572782L79 12.9331501zM16.8322141 11.0097293C16.8334979 11.1866729 16.7657167 11.3571005 16.6433593 11.4845821 16.524316 11.6105283 16.3588876 11.681862 16.1858521 11.681862 16.0128166 11.681862 15.8473882 11.6105283 15.7283449 11.4845821 15.6069404 11.356486 15.5393193 11.1864608 15.5394898 11.0097293L15.5394898 5.0020402C15.5393193 4.82530863 15.6069404 4.65528344 15.7283449 4.52718733 15.8473882 4.40124121 16.0128166 4.3299075 16.1858521 4.3299075 16.3588876 4.3299075 16.524316 4.40124121 16.6433593 4.52718733 16.7657167 4.654669 16.8334979 4.82509661 16.8322141 5.0020402L16.8322141 11.0097293zM16.6087803 15.182032C16.5236627 15.2727342 14.1190898 17.3562179 9.70893277 17.3562179 5.29877578 17.3562179 2.92612196 15.2727342 2.81174516 15.182032 2.74726652 15.1248735 2.69403637 15.0561051 2.65480953 14.9792858 2.61694751 14.9016429 2.59436927 14.817406 2.58831139 14.7311885 2.57999751 14.6413767 2.58902878 14.5507995 2.61491065 14.4644173 2.64066479 14.3824033 2.68223801 14.3062648 2.73726723 14.2403294 2.84578105 14.1060509 3.00437734 14.0221825 3.17615499 14.0082384 3.34750927 13.9947716 3.5168318 14.0526642 3.64430193 14.1683011 3.68154089 14.1949783 5.83076094 16.0063552 9.70361292 16.0063552 13.5764649 16.0063552 15.7416445 14.1843074 15.7629239 14.1683011 15.8928797 14.0540872 16.0633058 13.9973269 16.2355687 14.0108871 16.4078315 14.0244473 16.5673411 14.1071795 16.6779384 14.2403294 16.9139927 14.5199222 16.8857151 14.937056 16.6141002 15.182032L16.6087803 15.182032zM2.58032808 5.0020402C2.59009481 4.82454514 2.66717926 4.65751709 2.7957856 4.53519047 2.92207407 4.4163418 3.09093567 4.35379558 3.26393254 4.36178914 3.42513395 4.37217073 3.57634974 4.44370775 3.68686075 4.56186759 3.80146946 4.68018112 3.867875 4.83716669 3.87305555 5.0020402L3.87305555 10.9990584C3.87433933 11.176002 3.8065582 11.3464296 3.68420082 11.4739113 3.56562537 11.5997125 3.40063242 11.6709949 3.22802354 11.6709949 3.05541467 11.6709949 2.89042172 11.5997125 2.77184627 11.4739113 2.64851669 11.3468562 2.5797603 11.1763775 2.58032808 10.9990584L2.58032808 5.0020402zM5.82543307 3.66818383C5.83299176 3.49014304 5.91044212 3.32232215 6.04089508 3.2013341 6.1619252 3.085026 6.32446081 3.02234285 6.49200779 3.0273589 6.65955477 3.03237494 6.81807295 3.10466984 6.93197023 3.22801123 7.04469126 3.34757247 7.11077808 3.50380458 7.11816503 3.66818383L7.11816503 12.5596704C7.12066933 12.7407968 7.05296083 12.915824 6.9293103 13.0478618 6.80950127 13.1724076 6.6443587 13.2427575 6.47180306 13.2427575 6.29924743 13.2427575 6.13410485 13.1724076 6.01429582 13.0478618 5.89225493 12.9190983 5.82458493 12.7479943 5.82543307 12.5703412L5.82543307 3.66818383zM9.0838502 3.33471974C9.08367942 3.15798817 9.1513005 2.98796298 9.27270494 2.85986687 9.39190833 2.73413493 9.55722172 2.66280352 9.73021217 2.66245236 9.90339727 2.66185407 10.0690695 2.73334034 10.1877194 2.85986687 10.3091058 2.9877726 10.3759125 3.15814989 10.3739142 3.33471974L10.3739142 13.0051784C10.375198 13.182122 10.3074169 13.3525496 10.1850595 13.4800313 10.0664096 13.6065578 9.90073734 13.6780441 9.72755225 13.6774458 9.5545618 13.6770946 9.38924841 13.6057632 9.27004501 13.4800313 9.14864057 13.3519351 9.08101949 13.18191 9.08118996 13.0051784L9.0838502 3.33471974zM12.2917207 3.66818383C12.2904369 3.49124024 12.3582181 3.32081263 12.4805755 3.19333096 12.5992253 3.06680443 12.7648976 2.99531816 12.9380827 2.99591645 13.1110731 2.99626761 13.2763865 3.06759902 13.3955899 3.19333096 13.5169944 3.32142707 13.5846155 3.49145226 13.5844447 3.66818383L13.5844447 12.5596704C13.586949 12.7407968 13.5192405 12.915824 13.3955899 13.0478618 13.2754046 13.1718389 13.1104919 13.2420358 12.9380827 13.2426094 12.7654242 13.2432659 12.6000518 13.1728734 12.4805755 13.0478618 12.3585346 12.9190983 12.2908646 12.7479943 12.2917207 12.5703412L12.2917207 3.66818383zM17.0237287.0000385607869L2.43137576.0000385607869C2.11360612-.00178128627 1.79874351.060831132 1.50572158.184151 1.20656805.306194265.935129381.487683135.707743843.717693547.47920323.951519337.298480818 1.22792784.175758682 1.53134593.0568022911 1.84105585-.00275996084 2.17051236.0000981896404 2.50239337L.0000981896404 17.5056098C.0024782593 17.8356521.0665403589 18.1623299.189058311 18.4686541.311780447 18.7720722.492502859 19.0484807.721043472 19.2823065.94842901 19.5123169 1.21986768 19.6938057 1.51902121 19.815849 1.81204314 19.9391689 2.12690575 20.0017813 2.44467539 19.9999614L17.0237287 19.9999614C17.3414775 20.0015614 17.6562967 19.9389576 17.9493829 19.815849 18.2431843 19.691121 18.5097669 19.5098579 18.734061 19.2823065 18.9611672 19.0524197 19.1418109 18.7806608 19.2660462 18.4819926 19.3906846 18.1780744 19.4557103 17.8529 19.4575608 17.5242838L19.4575608 2.50239337C19.4550349 2.17237647 19.3909819 1.8457451 19.2687061 1.53934907 19.1448891 1.2404565 18.9641945.968621108 18.736721.739035249 18.5089181.509533615 18.237589.328117948 17.9387432.205492702 17.6472035.0800983222 17.3329595.0165205823 17.015749.018752811"/>
</svg>
