<svg xmlns="http://www.w3.org/2000/svg" xmlns:xlink="http://www.w3.org/1999/xlink" width="856" height="623" viewBox="0 0 856 623"><defs><polygon id="a" points="0 0 0 145 126 145 126 0"/></defs><g fill="none" fill-rule="evenodd" transform="translate(0 3)"><path fill="#099146" fill-rule="nonzero" d="M550,32 C549.447715,32 549,32.4477153 549,33 C549,33.5522847 549.447715,34 550,34 C550,34 566,33 592,38 C652.696473,49.1300806 708.140862,79.6595858 750,125 L751,125 C751,124 755,102 775,82 C795,62 815,56 815,56 L817,55 L817,53 C815,53 747,5 670,4 C600,4 550,31 550,32"/><path fill="#FDD400" fill-rule="nonzero" d="M545,36 C544,37 544,38 545,38 L585,112 L637,201 L639,201 C639,201 641,196 649,186 C689,139 742,141 743,142 C743.828427,142.276142 744.723858,141.828427 745,141 C745.276142,140.171573 744.828427,139.276142 744,139 C744,139 713,95 661,67 C626.018713,45.9618638 585.812753,35.2171677 545,36"/><path fill="#1E9DD8" fill-rule="nonzero" d="M540,39 L530,52 C496.90473,114.12105 490.41003,187.006008 512,254 L514,253 C514,253 517,247 526,240 C553.29562,217.856801 587.92164,206.790753 623,209 C623.357266,209.178633 623.782692,209.153097 624.116025,208.933013 C624.449359,208.712928 624.639958,208.33173 624.616025,207.933013 C624.592093,207.534295 624.357266,207.178633 624,207 L584,127 L541,39 C541,38.4477153 540.552285,38 540,38 C539.447715,38 539,38.4477153 539,39"/><path fill="#E21E25" fill-rule="nonzero" d="M534,39 C534,39 477,69 437,137 C412.262209,177.088761 401.045361,224.059315 405,271 L406,271 C406,271 429,251 467,251 C489,251 497,256 497,256 L499,256 C499.178633,255.690599 499.178633,255.309401 499,255 C499,254 490,226 490,185 C489.690327,132.720704 505.778029,81.6597365 536,39 L534,39"/><path fill="#020302" fill-rule="nonzero" d="M603,426 C596,431 585,434 577,434 C567.541535,434.003861 558.484181,430.179418 551.890889,423.397747 C545.297597,416.616075 541.729757,407.454604 542,398 C542,387 546,380 553,374 C566,393 585,410 606,424 L603,426 Z M573,310 C585,310 589,318 589,328 C589,341 579,348 567,353 C562,343 559,334 559,326 C559,318 565,310 574,310 L573,310 Z M678,443 C665,440 646,429 628,415 L637,396 C643,382 645,374 659,373 L659,367 C644.008249,367.703512 628.991751,367.703512 614,367 L614,373 L629,376 C628.123991,387.284586 624.705251,398.224552 619,408 C601,395 585,378 574,363 C590,355 609,346 609,326 C609,308 595,298 577,298 C556,298 539,313 539,333 C539,343 542,353 546,363 C528,371 516,383 516,404 C516,435 540,450 569,450 C589,450 604,442 616,430 C637,442 659,450 676,450 L678,443 L678,443 Z M600,548 C598,542 595,535 588,535 C583,535 576,540 572,543 L572,593 C572,610 579,608 592,609 L592,616 L532,616 L532,609 L545,607 L545,546 C545,539 545,533 535,533 L530,533 L530,527 L550,522 C555,520 561,518 565,518 C572,518 572,527 572,532 L572,534 C578,527 589,518 599,518 C609,518 616,523 616,533 C616,541 608,548 600,548 M407,615 L380,615 L380,609 L393,607 L393,559 C393,549 393,535 378,535 C371,535 360,538 354,542 L354,597 C354,607 357,608 367,609 L367,616 L313,616 L313,609 L327,607 L327,547 C327,539 327,533 317,533 L312,533 L312,527 L332,522 L347,518 C355,518 354,528 354,533 C364,527 382,518 394,518 C402,518 408,520 414,526 C420,533 420,546 420,555 L420,596 C420,610 427,608 437,609 L437,616 L407,616"/><g transform="translate(0 301)"><mask id="b" fill="#fff"><use xlink:href="#a"/></mask><path fill="#020302" fill-rule="nonzero" d="M122,145 L0,145 L0,139 L23,135 L23,24 C23,10 19,7 2,7 L2,-2.22044605e-15 L74,-2.22044605e-15 L74,7 L54,10 L54,123 C54,135 56,136 74,136 C102,136 112,134 119,106 L126,106 L122,146 L122,145 Z" mask="url(#b)"/></g><path fill="#020302" fill-rule="nonzero" d="M212,553 C202,553 198,556 198,566 L198,609 C183,615 165,619 143,619 C123.219141,620.151921 103.876748,612.866673 89.7708861,598.951431 C75.6650243,585.036189 68.1173005,565.7947 69,546 C69,504 103,469 146,469 C167,469 184,475 196,479 L196,516 L190,516 C188,504 184,495 177,488 C169.553274,481.430792 159.929268,477.866345 150,478 C112,478 104,522 104,548 C104,573 113,610 146,610 C164,610 169,604 169,586 L169,556 L151,554 L151,547 L214,547 L214,554 L212,554 L212,553 Z M666,568 C652,568 631,570 631,590 C631,600 636,606 646,606 C654,606 661,600 664,593 C666,588 666,583 666,578 L666,568 L666,568 Z M688,617 C678,617 671,615 667,605 C660,615 647,618 637,618 C619,618 602,610 602,590 C602,559 643,558 666,558 L666,546 C666,534 660,530 648,530 C640,530 631,532 623,535 L623,523 C633,520 644,518 657,518 C667,518 679,520 686,526 C693,533 693,542 693,552 L693,595 C693,603 695,609 703,609 L723,608 L723,498 C723,490 723,484 713,484 L708,484 L708,478 L728,473 L743,469 C751,469 750,479 750,484 L750,597 C750,607 756,607 772,609 L772,616 L688,616 L688,617 Z M386,399 C372,399 351,401 351,421 C351,431 355,437 366,437 C374.075304,436.700966 381.177241,431.571789 384,424 C386,419 386,414 386,409 L386,399 L386,399 Z M408,448 C398,448 391,446 387,435 C380,445 367,449 357,449 C339,449 322,441 322,421 C322,390 363,389 386,389 L386,377 C386,365 380,361 368,361 C360,361 350,363 343,366 L343,354 C353,351 363,349 377,349 C387,349 399,351 406,357 C413,364 413,373 413,383 L413,426 C413,434 415,440 423,440 L443,439 L443,329 C443,321 443,315 433,315 L428,315 L428,309 L448,304 L463,300 C471,300 470,310 470,315 L470,429 C470,439 476,439 492,441 L492,447 L408,449 L408,448 Z M484,527 C469,527 464,545 462,557 L488,555 C495,555 499,553 499,545 C499,537 494,527 484,527 M527,565 L462,566 C462,590 472,606 498,606 C505,606 513,604 519,602 L519,611 C509,616 499,618 486,618 C456,618 433,598 433,568 C433,537 456,518 485,518 C509,518 527,534 527,558 L527,565"/><path fill="#020302" fill-rule="nonzero" d="M283,451 L262,451 L247,450 C245,452 242,457 242,460 C242,474 255,479 273,479 C294,479 307,472 307,462 C307,451 292,451 283,451 M275,359 C264,359 259,369 259,381 C259,395 263,409 277,409 C288,409 293,400 293,388 C293,374 289,359 275,359 M331,359 C326,355 321,352 316,352 C311,352 309,357 308,360 C314.270176,365.60711 317.898321,373.589028 318,382 C318,405 299,419 278,419 L263,418 C261,421 257,424 253,425 C254,430 259,430 263,430 L286,430 C302,430 321,435 321,455 C321,483 293,495 268,495 C251,495 224,487 224,466 C224,456 232,450 240,446 C234,442 231,435 231,427 L231,424 C238,423 251,420 255,414 C242.397409,409.568418 234.243541,397.337615 235,384 C235,361 255,349 277,349 C285,349 295,351 302,356 C305,346 312,338 323,338 C327,338 336,340 336,346 C336,350 334,355 331,358 M182,359 C167,359 162,377 161,389 L186,387 C193,387 197,385 197,377 C197,368 192,359 182,359 M225,397 L160,399 C160,423 170,439 197,439 C203,439 212,437 217,435 L217,443 C207,448 197,450 184,450 C154,450 131,430 131,400 C131,370 154,350 183,350 C207,350 225,367 225,390 L225,398 M268,527 C253,527 248,545 247,557 L272,555 C279,555 283,553 283,545 C283,537 278,527 268,527 M311,565 L246,566 C246,590 256,606 283,606 C289,606 297,604 303,602 L303,611 C293,616 283,618 270,618 C240,618 217,598 217,568 C217,537 240,518 269,518 C293,518 311,534 311,558 L311,565 M586,112 L546,37 C546,37 591,32 660,69 C692.479916,86.8131714 720.778408,111.361261 743,141 C743,141 689,138 648,186 C640,196 638,201 638,201 L586,113 L586,112 Z M526,239 C516,247 513,252 513,252 C513,252 477,154 533,52 L541,40 C541,40 575,113 583,127 L624,207 C624,207 568,201 526,239 L526,239 Z M467,249 C427,249 405,269 405,269 C405,269 395,209 438,137 C478,69 535,39 535,39 L522,59 C465,158 498,254 498,254 C498,254 490,249 468,249 L467,249 Z M671,6 C749,6 816,55 816,55 C816,55 796,61 776,81 C754,101 751,124 751,124 C751,124 695,55 591,36 C566,31 550,33 550,33 C550,33 599,5 670,6 L671,6 Z M781,360 C781,360 779,358 773,361 C769,364 769,367 769,367 L779,385 C781,391 782,398 773,405 C768,407 759,410 753,406 C751,406 748,403 746,401 L706,329 L646,216 C646,216 644,214 645,212 L646,208 C686,145 759,151 759,151 L761,132 C773,70 848,57 848,57 C848,57 818,34 774,17 C741,6 714,0 674,0 C625,0 583,14 578,16 C565,19 545,29 545,29 L526,1 L524,1 L524,3 L535,33 L525,39 C481.958659,66.7297829 446.274583,104.472555 421,149 C382,221 391,293 391,293 C391,293 421,261 468,261 C496,261 513,271 513,271 C513,271 520,258 533,247 C560.089328,225.365441 594.463424,214.981599 629,218 L632,220 L732,404 C737.41919,415.421669 749.416966,422.220409 762,421 C784,420 795,405 795,391 C795,378 784,363 782,359 L781,360 Z"/><path stroke="#020302" stroke-width="6" d="M586,112 L546,37 C546,37 591,32 660,69 C692.479916,86.8131714 720.778408,111.361261 743,141 C743,141 689,138 648,186 C640,196 638,201 638,201 L586,113 L586,112 Z M526,239 C516,247 513,252 513,252 C513,252 477,154 533,52 L541,40 C541,40 575,113 583,127 L624,207 C624,207 568,201 526,239 L526,239 Z M467,249 C427,249 405,269 405,269 C405,269 395,209 438,137 C478,69 535,39 535,39 L522,59 C465,158 498,254 498,254 C498,254 490,249 468,249 L467,249 Z M671,6 C749,6 816,55 816,55 C816,55 796,61 776,81 C754,101 751,124 751,124 C751,124 695,55 591,36 C566,31 550,33 550,33 C550,33 599,5 670,6 L671,6 Z M781,360 C781,360 779,358 773,361 C769,364 769,367 769,367 L779,385 C781,391 782,398 773,405 C768,407 759,410 753,406 C751,406 748,403 746,401 L706,329 L646,216 C646,216 644,214 645,212 L646,208 C686,145 759,151 759,151 L761,132 C773,70 848,57 848,57 C848,57 818,34 774,17 C741,6 714,0 674,0 C625,0 583,14 578,16 C565,19 545,29 545,29 L526,1 L524,1 L524,3 L535,33 L525,39 C481.958659,66.7297829 446.274583,104.472555 421,149 C382,221 391,293 391,293 C391,293 421,261 468,261 C496,261 513,271 513,271 C513,271 520,258 533,247 C560.089328,225.365441 594.463424,214.981599 629,218 L632,220 L732,404 C737.41919,415.421669 749.416966,422.220409 762,421 C784,420 795,405 795,391 C795,378 784,363 782,359 L781,360 Z"/></g></svg>