<svg xmlns="http://www.w3.org/2000/svg" width="500" height="68" viewBox="0 0 500 68"><g fill="none"><path fill="#0D4BA0" d="M0 2.187832 0 66.0915622 13.9591656 66.0915622 13.9591656 23.4564916C13.9591656 21.5233279 13.7868144 17.0126125 13.2710468 9.82916646 14.0466274 14.3424542 15.074304 18.0698717 15.7688538 21.0615808L26.178098 66.0889898 40.4845385 66.0889898 51.1561682 20.3220139C51.8983076 17.129657 52.963284 13.6929215 53.7388647 9.82659406 53.3067003 14.4299161 53.0468873 18.8518834 53.0468873 23.1773855L53.0468873 66.0889898 68.0414466 66.0889898 68.0414466 2.187832 44.0871943 2.187832 35.915944 40.2144358C35.3731662 42.7379669 34.5397064 46.5682807 34.1049696 51.9085972 33.847729 47.2139548 33.2779408 43.4235133 32.4689189 40.5810038L21.5246141 2.18397339 0 2.18397339 0 2.187832ZM116.039985 2.40520038C111.409653.802590928 107.135599 0 103.220396 0 86.7531338 0 76.9612673 9.34812639 76.9612673 24.2127792 76.9612673 38.5449438 87.1068398 48.2622106 101.974065 48.2622106 107.581912 48.2622106 112.477202 47.5483677 116.483726 46.1116785L116.13002 34.0921076C113.191045 35.8734993 110.07586 36.7635521 106.604397 36.7635521 98.3238197 36.7635521 93.1609992 31.692052 93.1609992 24.1214588 93.1609992 16.377228 98.0575756 11.3931898 105.890554 11.3931898 108.826957 11.3931898 111.853393 12.1944945 114.968578 13.8845658L116.039985 2.40520038ZM127.847333 66.0928485 144.881811 66.0928485 144.881811 36.440715 164.953015 66.090276 186.134213 66.090276 160.258373 31.5608593 183.73673 2.1865458 164.677767 2.1865458 144.881811 29.8116226 144.881811 2.187832 127.847333 2.187832 127.847333 66.0928485ZM209.405491 39.20348 235.184866 39.20348 235.184866 27.0514301 209.405491 27.0514301 209.405491 14.1610995 236.751462 14.1610995 236.751462 2.1865458 192.367154 2.1865458 192.367154 66.0928485 237.763704 66.0928485 237.763704 53.7530129 209.405491 53.7530129 209.405491 39.20348ZM296.787578 2.92482656C291.265907 1.36080321 285.463844.623808654 279.29264.623808654 261.982914.623808654 252.683663 7.89857514 252.683663 20.6049786 252.683663 30.0881564 258.114014 35.1532254 269.626821 39.2973728 277.453369 42.1527444 282.424545 42.9797732 282.424545 47.7695947 282.424545 52.0063487 278.371718 54.7678274 271.557412 54.7678274 266.767591 54.7678274 261.061992 53.4803378 254.798182 50.6249662L253.326765 64.8966793C259.955857 66.7526708 266.402309 67.5835582 272.570941 67.5835582 290.52634 67.5835582 299.92077 59.8316102 299.92077 45.9277514 299.92077 39.9417607 297.892427 35.6162586 293.379139 32.115213 289.238851 28.9845939 283.25286 27.3266777 275.976807 24.9343393 272.019159 23.6468497 270.085996 21.6223655 270.085996 18.9483486 270.085996 15.1720554 273.953609 12.7797171 281.039304 12.7797171 285.553878 12.7797171 290.338554 13.8832796 295.497516 16.0929771L296.787578 2.92482656ZM354.602422 2.92482656C349.079464 1.36080321 343.277401.623808654 337.106197.623808654 319.796471.623808654 310.494648 7.89857514 310.494648 20.6049786 310.494648 30.0881564 315.928858 35.1532254 327.440378 39.2973728 335.266926 42.1527444 340.238102 42.9797732 340.238102 47.7695947 340.238102 52.0063487 336.185275 54.7678274 329.370969 54.7678274 324.582434 54.7678274 318.87555 53.4803378 312.611739 50.6249662L311.139036 64.8979655C317.768128 66.753957 324.212007 67.5848444 330.383211 67.5848444 348.338611 67.5848444 357.733041 59.8328965 357.733041 45.9290376 357.733041 39.9430469 355.708557 35.6175448 351.195269 32.1164992 347.051121 28.9858801 341.065131 27.3279639 333.792937 24.9356255 329.83143 23.6481359 327.902125 21.6236517 327.902125 18.9496348 327.902125 15.1733416 331.76588 12.7810033 338.858006 12.7810033 343.37258 12.7810033 348.157256 13.8845658 353.313646 16.0942633L354.602422 2.92482656ZM399.722437.623808654C379.923908.623808654 367.953213 13.0536784 367.953213 34.1422695 367.953213 55.2282882 379.832588 67.5809858 399.722437 67.5809858 419.520966 67.5809858 431.396482 55.2257158 431.396482 34.1409833 431.396482 13.0536784 419.520966.623808654 399.722437.623808654ZM399.722437 13.0536784C408.190801 13.0536784 414.269398 20.8802262 414.269398 33.9570562 414.269398 47.1239206 408.282121 54.9491821 399.722437 54.9491821 391.156323 54.9491821 385.079011 47.1239206 385.079011 33.9570562 385.079011 20.7889057 391.250215 13.0536784 399.722437 13.0536784ZM441.436586 2.187832 441.436586 66.0915622 456.813148 66.0915622 456.813148 32.3930329C456.813148 27.6945318 456.260081 21.340687 455.063911 13.4215326 456.260081 18.3013883 457.73407 22.6294628 459.577199 26.4031836L478.821375 66.0889898 500 66.0889898 500 2.187832 484.622152 2.187832 484.622152 38.375165C484.622152 42.8897389 485.177792 48.2300555 486.186175 54.3073666 484.161691 47.6782742 482.503775 43.073666 481.216285 40.493542L462.707818 2.1891182 441.436586 2.187832Z"/><polygon fill="#F15A22" points="115.981 55.222 115.981 66.647 81.138 66.647 81.138 55.222"/></g></svg>