<svg xmlns="http://www.w3.org/2000/svg" width="500" height="123" viewBox="0 0 500 123"><path fill="#ED1C24" d="M52.7068086,122.289078 C26.6169264,118.15164 6.42508809,99.0270491 1.07068099,73.3819677 C0.0211260456,68.3550291 -0.326841962,59.0503582 0.342493383,53.910732 C3.94548296,26.2456306 24.5378015,5.09149585 52.3014126,0.53428648 C57.6861417,-0.349581663 68.451557,-0.102636477 73.5932047,1.02270051 C95.5860783,5.83619057 112.777416,21.1685366 119.721615,42.1629847 C121.825963,48.5252448 122.77426,54.4787045 122.77426,61.3283449 C122.77426,90.1868745 103.009227,114.824948 74.5597876,121.430184 C70.0619312,122.474502 57.0907737,122.984279 52.7068086,122.289078 L52.7068086,122.289078 Z M59.0827458,94.3599087 C55.8672807,90.609012 50.9391275,82.7712876 49.4323075,79.0119008 C48.0626716,75.5947943 47.9182745,74.7742624 47.9108778,70.368562 C47.903527,65.9691787 48.0317523,65.2214013 49.2433462,62.5977804 C51.6266101,57.4373606 55.9642192,54.5504344 61.3816134,54.5191752 C69.3076943,54.4734625 75.1371002,61.2818512 75.1007597,70.5423439 C75.0768697,76.6114729 71.9063362,83.7089773 65.6079959,91.7923467 L61.9671957,96.4649267 L65.4840891,96.1462379 C75.6939685,95.2210445 85.267591,90.6668581 92.5235555,83.2835871 C96.4191066,79.3196416 98.3998687,76.4985647 100.777711,71.5275656 C103.910802,64.9776904 104.858778,60.6886608 104.87691,52.9835309 C104.888365,47.7966437 104.685805,45.6736346 103.868351,42.4128059 C98.5859356,21.3406784 78.2510325,7.14652396 56.8340473,9.58188194 C38.7632335,11.6367447 23.7032571,24.8059693 19.2895214,42.4128059 C17.8214768,48.2688538 17.8397619,57.8456694 19.3294913,63.4145496 C23.8099814,80.1626164 37.1468407,92.6122906 53.8559668,95.6443305 C55.6812597,95.9755387 57.9839405,96.265362 58.9731731,96.2883746 L60.7716816,96.3301822 L59.0827458,94.3599087 Z M303.810428,97.4789774 C299.345237,96.6564699 293.898439,94.826252 291.090622,93.2049204 C284.378707,89.3292074 280.007376,82.0464263 278.496651,72.2229687 C277.822079,67.836803 278.237628,58.2035794 279.276616,54.1425345 C281.11413,46.9599493 284.891747,41.3295843 290.365972,37.6142517 C295.832984,33.903812 307.200658,31.8022212 316.606499,32.7630429 C326.223262,33.7454116 332.022621,36.1117595 336.905199,41.0456647 C340.545586,44.7243076 342.497175,48.4025279 343.996231,54.4103422 C345.379006,59.9522817 345.483112,71.6479486 344.194059,76.627176 C341.380406,87.4948729 334.920624,94.0260358 324.208869,96.833114 C319.282554,98.1240735 309.068172,98.4474899 303.810428,97.4789774 L303.810428,97.4789774 Z M319.54732,85.7309453 C323.031641,84.182823 324.584495,82.7797273 326.229693,79.693025 C328.231084,75.9379889 329.060529,71.7117075 329.060529,65.2689563 C329.060529,50.2645657 323.78257,43.7229233 311.691623,43.7414218 C306.110582,43.7500523 302.953004,44.7363032 299.996425,47.3945142 C296.016845,50.9724881 294.313575,56.3298355 294.313575,65.2689563 C294.313575,77.6514672 298.173797,84.5515984 306.237108,86.5820978 C309.356875,87.3677181 316.957361,86.881693 319.54732,85.7309453 Z M169.193624,95.8157372 C168.956607,95.2062694 162.900659,81.4782424 155.735937,65.3090089 C148.571168,49.13978 142.709097,35.7359182 142.709097,35.5226534 C142.709097,35.3093886 145.388368,35.1348947 148.663007,35.1348947 C153.998256,35.1348947 154.829171,35.2468334 156.660115,36.2122494 C157.792963,36.8095929 159.234821,38.1005708 159.896162,39.1097561 C160.55222,40.1108418 164.494632,48.9617944 168.657017,58.7785397 C172.819493,68.5952897 176.37213,76.9112702 176.551857,77.2584986 C176.746331,77.6341791 179.930234,70.2636019 184.414675,59.0565742 C188.55951,48.6982824 192.397633,39.5633549 192.943888,38.7567436 C193.490098,37.9501231 194.856472,36.8052284 195.980224,36.2125296 C197.841214,35.230997 198.611577,35.1348947 204.618964,35.1348947 L211.214506,35.1348947 L198.482892,63.2986506 C191.48053,78.7887171 185.234012,92.1423454 184.601799,92.9733843 C182.654437,95.5330534 180.270529,96.41926 174.610697,96.687527 C169.684657,96.9210065 169.619235,96.9104857 169.193624,95.8157372 L169.193624,95.8157372 Z M234.733863,95.7877123 C226.040405,94.1418751 218.697426,86.4636306 215.878306,76.0711209 C214.429971,70.7320218 214.435989,60.4724649 215.890251,55.3278126 C218.139317,47.3725261 222.725934,41.0181865 228.403133,37.9922753 C233.657937,35.1914911 235.416016,34.9669245 252.35049,34.9334095 L267.649321,34.9031334 L267.649321,40.4663489 L267.649321,46.0295598 L254.42502,46.2613578 L241.200766,46.4931603 L238.148213,47.9968471 C236.016851,49.0467649 234.704965,50.0644175 233.800726,51.3691597 C232.521688,53.2148694 231.256664,57.0618777 231.256664,59.1058337 L231.256664,60.1582324 L248.757561,60.2797042 L266.258505,60.4011806 L266.258505,65.7325935 L266.258505,71.0640019 L248.757561,71.1854783 L231.256664,71.3069547 L231.256664,72.3140634 C231.256664,72.8679775 231.597832,74.5371627 232.014806,76.0233638 C233.043595,79.6897769 235.55513,82.5006178 239.036969,83.8823135 C241.527279,84.870517 242.480125,84.9446083 254.784382,85.1066978 L267.8811,85.2792301 L267.8811,90.8047406 L267.8811,96.3302511 L252.466402,96.2784005 C243.988277,96.2498702 236.008536,96.0290709 234.733633,95.7877077 L234.733863,95.7877123 Z M371.425151,95.4098817 C369.601328,94.9317588 367.225415,94.089758 366.145354,93.5387795 C363.355546,92.1155012 359.809939,88.3936999 358.483259,85.49589 C356.392281,80.9285319 356.234101,78.8872084 356.215127,56.2287805 L356.197669,34.903138 L361.065499,34.903138 C365.273918,34.903138 366.153119,35.0408597 367.555925,35.9199085 C370.657637,37.86354 370.545767,37.0757374 370.801115,58.7785857 L371.032895,78.4816194 L372.19193,80.5428406 C373.025556,82.0254903 373.997606,82.9364047 375.654749,83.7880489 C377.909145,84.9466436 378.19996,84.9752979 389.215073,85.1241468 L400.471567,85.2762576 L400.471567,90.8032566 L400.471567,96.3302557 L387.606628,96.3047117 C376.570658,96.2828431 374.270274,96.1555917 371.425519,95.4098633 L371.425151,95.4098817 Z M409.381918,67.7028992 C409.50509,40.4692249 409.554249,39.012326 410.391549,37.7769477 C411.859686,35.6107802 413.66628,34.9697684 418.899353,34.7582494 L423.651225,34.5661732 L423.651225,63.1532336 C423.651225,94.700581 423.752666,93.5795305 420.731216,95.4218221 C419.502118,96.1712489 418.388106,96.3270903 414.249749,96.3285191 L409.252499,96.3303568 L409.381918,67.7028992 Z M431.309003,95.7849328 C431.439525,95.4474121 436.939524,82.758341 443.531207,67.5870002 C456.953151,36.6953662 457.057487,36.5095291 461.651638,35.3249539 C464.879646,34.4926332 472.959634,34.4425422 473.607376,35.2508396 C473.973124,35.7072409 498.739588,92.4082097 499.942958,95.5442082 C500.217097,96.2586222 499.68954,96.3302557 494.153293,96.3302557 C485.129509,96.3302557 483.696886,95.4206919 480.173423,87.4546503 L478.050056,82.6540287 L465.677252,82.5305401 L453.304495,82.4070514 L452.829542,83.6562997 C452.568313,84.3433872 451.439875,86.8114195 450.32182,89.1408204 C448.698582,92.5229142 447.893854,93.6502956 446.327033,94.7372706 C444.412015,96.0657697 444.20532,96.102055 437.718294,96.2485333 C432.348083,96.3697892 431.117285,96.2807389 431.309003,95.7849328 Z M474.504999,70.7163049 C470.966835,62.2268825 466.117656,51.0376436 465.853533,50.7532783 C465.571906,50.4500858 462.158291,57.9479924 457.186998,69.7891039 L456.554417,71.295809 L465.650514,71.295809 C472.747104,71.295809 474.693455,71.1684244 474.504999,70.7163049 L474.504999,70.7163049 Z"/></svg>