<svg xmlns="http://www.w3.org/2000/svg" width="500" height="111" viewBox="0 0 500 111">
  <g fill="none">
    <polygon fill="#1392D1" points="43.606 73.213 16.509 111 36.624 111 54.245 87.529"/>
    <polygon fill="#1392D1" points="106.132 95.441 75.741 55.5 105.97 15.72 94.17 .16 64.749 40.903 33.873 0 14.151 0 94.331 111"/>
    <polygon fill="#245B86" points="71.7 0 54.245 23.344 65.051 37.787 91.981 0"/>
    <polygon fill="#245B86" points="72.259 111 91.981 111 11.639 0 0 15.559 30.068 55.34 0 94.96 11.477 110.84 41.06 69.776"/>
    <path fill="#1392D1" d="M32.8433962 89.2704796C23.7556604 89.4313274 15.1462264 85.7318299 8.92830189 78.976226 6.05849057 75.7592717 3.82641509 72.0597745 2.39150943 68.0385817.797169811 63.8565412 0 59.513653 0 55.009917 0 50.5061813.797169811 46.0024454 2.39150943 41.8204049 3.98584906 37.7992121 6.21792453 34.0997146 9.08773585 30.8827606 11.9575472 27.6658063 15.6245283 25.2530907 19.4509434 23.4837658 23.5962264 21.5535933 28.2198113 20.588507 32.8433962 20.7493547 41.9311321 20.588507 50.540566 24.2880042 56.7584906 31.0436083 59.6283019 34.2605624 62.0198113 37.9600599 63.454717 41.9812526 65.0490566 46.1632931 65.8462264 50.6670288 65.8462264 55.1707648 65.8462264 59.6745007 65.0490566 64.017389 63.454717 68.1994295 60.2660377 76.4026627 54.0481132 82.9974188 46.2358491 86.5360686 42.090566 88.3053932 37.4669811 89.2704796 32.8433962 89.2704796L32.8433962 89.2704796zM11.1603774 55.1707648C11.1603774 58.3877191 11.6386792 61.7655209 12.9141509 64.8216274 14.0301887 67.7168862 15.4650943 70.2904496 17.5377358 72.5423177 19.4509434 74.6333378 21.8424528 76.4026627 24.3933962 77.6894444 29.8141509 80.2630077 35.8726415 80.2630077 41.2933962 77.6894444 44.0037736 76.4026627 46.2358491 74.6333378 48.3084906 72.3814699 50.3811321 70.1296018 51.9754717 67.3951908 52.9320755 64.499932 54.0481132 61.4438256 54.6858491 58.0660236 54.6858491 54.8490693 54.6858491 51.6321153 54.2075472 48.415161 52.9320755 45.3590544 51.8160377 42.4637956 50.2216981 39.8902322 48.3084906 37.4775166 46.395283 35.2256488 44.0037736 33.4563239 41.2933962 32.1695422 38.5830189 30.8827606 35.7132075 30.2393696 32.8433962 30.2393696 29.9735849 30.2393696 26.9443396 30.8827606 24.3933962 32.1695422 21.8424528 33.4563239 19.4509434 35.2256488 17.5377358 37.4775166 15.4650943 39.7293845 14.0301887 42.4637956 12.9141509 45.3590544 11.7981132 48.7368564 11.1603774 51.9538107 11.1603774 55.1707648L11.1603774 55.1707648zM171.232075 87.983698L160.231132 87.983698 160.231132 50.9887243C160.231132 44.0722727 159.115094 38.9251461 156.883019 35.7081918 154.650943 32.4912377 150.983962 30.5610651 146.998113 30.7219128 142.533962 30.7219128 138.229245 32.4912377 134.881132 35.547344 131.214151 38.9251461 128.663208 43.2680343 127.228302 48.0934655L127.228302 87.983698 116.227358 87.983698 116.227358 50.9887243C116.227358 43.911425 115.111321 38.7642983 113.038679 35.547344 110.806604 32.33039 107.139623 30.5610651 103.313208 30.7219128 98.8490566 30.7219128 94.5443396 32.4912377 91.3556604 35.3864963 87.5292453 38.7642983 84.8188679 43.1071865 83.5433962 48.0934655L83.5433962 87.983698 72.5424528 87.983698 72.5424528 22.0361364 82.5867925 22.0361364 82.5867925 36.190735C84.9783019 31.5261513 88.645283 27.6658063 92.95 24.9313952 97.254717 22.1969841 102.19717 20.9102024 107.299057 20.9102024 112.082075 20.588507 116.70566 22.1969841 120.372642 25.4139384 123.561321 28.4700447 125.793396 32.4912377 126.271698 36.9949734 132.170755 26.2181769 140.461321 20.9102024 151.143396 20.9102024 154.491509 20.7493547 157.680189 21.5535933 160.55 23.0012227 163.100943 24.2880042 165.173585 26.3790246 166.608491 28.7917402 168.20283 31.5261513 169.318868 34.4214101 169.79717 37.6383644 170.434906 41.3378617 170.753774 44.8765114 170.753774 48.5760087L171.232075 87.983698zM211.728302 89.2704796C207.104717 89.2704796 202.481132 88.4662409 198.176415 86.5360686 194.190566 84.7667437 190.683019 82.3540281 187.653774 79.1370738 184.624528 75.9201195 182.392453 72.2206222 180.798113 68.1994295 179.203774 64.017389 178.406604 59.513653 178.406604 55.009917 178.406604 50.5061813 179.203774 46.0024454 180.798113 41.8204049 185.740566 28.9525879 198.176415 20.7493547 211.728302 20.9102024 225.120755 20.7493547 237.39717 29.1134357 242.020755 41.8204049 243.615094 45.8415976 244.412264 50.1844858 244.25283 54.5273741L244.25283 57.1009374C244.25283 57.7443281 244.093396 58.2268713 244.093396 58.8702623L189.885849 58.8702623C190.045283 61.9263686 190.842453 64.9824752 192.117925 67.877734 193.233962 70.4512973 194.987736 72.8640129 197.060377 74.7941855 198.973585 76.7243582 201.365094 78.3328353 203.916038 79.2979215 206.466981 80.4238554 209.177358 80.9063987 212.04717 80.9063987 213.960377 80.9063987 216.033019 80.5847032 217.946226 80.10216 219.859434 79.619617 221.613208 78.8153783 223.366981 77.8502921 224.961321 76.8852059 226.55566 75.7592717 227.831132 74.4724901 229.106604 73.1857084 230.063208 71.5772313 230.700943 69.9687543L240.266981 72.7031654C239.150943 75.115881 237.716038 77.3677489 235.80283 79.4587693 233.889623 81.5497894 231.657547 83.3191143 229.266038 84.7667437 226.715094 86.3752208 223.845283 87.5011547 220.975472 88.3053932 218.10566 88.7879364 214.916981 89.2704796 211.728302 89.2704796L211.728302 89.2704796zM234.208491 50.6670288C234.049057 47.6109225 233.251887 44.7156637 231.976415 41.9812526 230.700943 39.4076893 229.106604 37.1558212 227.033962 35.2256488 220.656604 29.4351311 211.728302 27.6658063 203.756604 30.8827606 201.20566 31.8478467 198.973585 33.4563239 196.900943 35.3864963 194.828302 37.3166689 193.233962 39.5685368 192.117925 42.1421003 190.842453 44.8765114 190.204717 47.7717702 189.885849 50.6670288L234.208491 50.6670288zM286.50283 84.6058959C285.865094 84.9275914 284.908491 85.4101344 283.951887 85.8926776 282.835849 86.3752208 281.560377 86.8577638 280.284906 87.340307 278.85 87.8228502 277.25566 88.1445455 275.820755 88.4662409 274.226415 88.7879364 272.472642 88.9487842 270.718868 88.9487842 267.051887 89.1096319 263.384906 87.8228502 260.35566 85.5709821 257.485849 83.3191143 255.891509 79.9413122 255.891509 75.2767288L255.891509 30.7219128 246.963208 30.7219128 246.963208 22.0361364 255.891509 22.0361364 255.891509 0 266.892453 0 266.892453 22.0361364 281.560377 22.0361364 281.560377 30.7219128 266.892453 30.7219128 266.892453 71.5772313C266.892453 73.6682516 267.689623 75.598424 269.283962 76.8852059 270.718868 78.0111398 272.472642 78.4936828 274.226415 78.4936828 276.299057 78.4936828 278.212264 78.1719876 280.125472 77.3677489 281.400943 76.8852059 282.676415 76.4026627 283.792453 75.598424L286.50283 84.6058959zM328.115094 31.686999C323.013208 31.686999 317.911321 33.2954762 313.606604 36.0298872 309.461321 38.6034506 306.272642 42.6246433 304.678302 47.289227L304.678302 87.983698 293.677358 87.983698 293.677358 22.0361364 303.881132 22.0361364 303.881132 37.3166689C305.953774 32.9737807 308.983019 29.2742834 312.809434 26.2181769 316.157547 23.4837658 320.30283 21.8752887 324.448113 21.3927456L326.520755 21.3927456C326.999057 21.3927456 327.477358 21.3927456 327.95566 21.5535933L328.115094 31.686999zM346.45 100.529819C347.566038 100.690667 348.522642 100.851515 349.638679 100.851515 350.754717 100.851515 351.551887 101.012362 352.189623 101.012362 353.30566 101.012362 354.581132 100.690667 355.537736 100.208124 356.49434 99.564733 357.291509 98.5996468 357.929245 97.4737129 358.726415 96.1869312 360.320755 91.844043 361.75566 87.983698L334.173585 22.0361364 345.493396 22.0361364 367.814151 78.0111398 388.062264 22.0361364 398.584906 22.0361364 368.770755 99.8864285C367.495283 102.942535 365.582075 105.676946 363.031132 107.607118 359.842453 110.019834 355.856604 111.145768 351.870755 110.984921 351.073585 110.984921 350.276415 110.984921 349.479245 110.824073 348.522642 110.663225 347.566038 110.502377 346.609434 110.34153L346.45 100.529819z" transform="translate(101.415)"/>
  </g>
</svg>
