<svg xmlns="http://www.w3.org/2000/svg" width="500" height="112" viewBox="0 0 500 112"><path fill="#006AFF" fill-rule="evenodd" d="M63.3456052,29.2870648 C63.8196042,29.1628111 64.0358951,29.3422887 64.316613,29.673632 C65.9272895,31.5880598 71.1182697,38.2609454 72.531063,40.0879355 C72.6351813,40.218637 72.6808609,40.3864576 72.657351,40.5518995 C72.6338412,40.7173414 72.5432182,40.8657924 72.4068109,40.9623136 C61.9420156,49.581841 50.2991256,61.7725127 43.8104004,70.5070898 C43.6723424,70.6911694 43.7873907,70.7049754 43.8794294,70.6635575 C55.1817763,65.5277366 81.7257248,57.3315923 93.699954,55.0351992 L93.699954,39.0478857 L46.8982973,0 L0,39.0478857 L0,56.521642 C14.5375058,47.4050997 48.1224114,33.2907962 63.3410032,29.2870648 L63.3456052,29.2870648 Z M280.924988,5.43495027 L301.518638,5.43495027 L301.518638,108.206592 L280.924988,108.206592 L280.924988,5.43495027 Z M265.669581,5.43495027 L245.075932,5.43495027 L245.075932,108.211194 L265.669581,108.211194 L265.669581,5.43495027 Z M402.406811,40.9623136 L382.061666,40.9623136 L402.664519,108.220398 L421.610676,108.220398 L426.783249,91.2160452 C428.835711,84.4603237 432.259549,71.846269 432.259549,71.846269 C432.276526,71.7761395 432.339258,71.7267136 432.411413,71.7266172 C432.480442,71.7266172 432.540267,71.7726371 432.563277,71.846269 C432.563277,71.846269 435.991717,84.7042292 437.938334,91.3310949 L443.014266,108.206592 L461.624482,108.206592 L482.080074,40.9577116 L463.170732,40.9577116 L457.271054,61.3031097 C455.470159,67.75202 453.719837,74.2149465 452.020249,80.6912939 C452.003271,80.7614233 451.940539,80.8108492 451.868385,80.8109456 C451.79623,80.8108492 451.733498,80.7614233 451.716521,80.6912939 C451.716521,80.6912939 448.541187,68.2751247 446.484123,61.3031097 L440.409572,40.9623136 L425.379659,40.9623136 L419.194662,61.3031097 C417.257248,67.8103237 413.85642,80.7004978 413.85642,80.7004978 C413.834336,80.765152 413.772857,80.8080017 413.704556,80.8063436 C413.637942,80.8060075 413.578845,80.763531 413.557294,80.7004978 C413.557294,80.7004978 410.271514,68.0450252 408.301887,61.3031097 L402.406811,40.9623136 Z M311.711919,74.8145525 C311.711919,54.3817166 327.326277,39.2457713 346.4289,39.2457713 C365.342844,39.2457713 380.961804,54.3863186 380.961804,74.8145525 C380.961804,95.3072143 365.352048,110.447762 346.4289,110.447762 C327.330879,110.447762 311.711919,95.3072143 311.711919,74.8283585 L311.711919,74.8145525 Z M361.201104,74.8145525 C361.201104,64.8098261 354.436263,57.9988808 346.4289,57.9988808 C338.232858,57.9988808 331.472618,64.8098261 331.472618,74.8145525 C331.472618,84.8883088 338.232858,91.6302243 346.4289,91.6302243 C354.436263,91.6302243 361.201104,84.8883088 361.201104,74.8145525 Z M125.950299,14.9426618 L125.950299,34.758831 L162.346986,34.758831 C162.494248,34.758831 162.549471,34.9060947 162.47584,35.0349504 L125.936493,100.576493 L125.872066,100.696145 C125.043718,102.297637 124.845835,102.684204 124.845835,104.345523 L124.845835,108.211194 L195.743212,108.211194 L195.743212,88.4318412 L156.359871,88.4318412 C156.295957,88.4316986 156.238175,88.3937782 156.212609,88.3351994 C156.184214,88.27516 156.191295,88.2043473 156.231017,88.1511198 L193.193741,21.7490051 L193.294984,21.5373135 C193.552692,20.9850747 193.801197,20.4696518 193.801197,19.0890548 L193.8104,14.9472637 L125.950299,14.9472637 L125.950299,14.9426618 Z M219.153244,7.2757463 C225.572941,7.2757463 230.878969,12.7429105 230.878969,19.475622 C230.878969,26.2129354 225.572941,31.6893036 219.153244,31.6893036 C212.733548,31.6893036 207.432121,26.2221394 207.432121,19.484826 C207.432121,12.7475125 212.733548,7.28034829 219.153244,7.28034829 L219.153244,7.2757463 Z M208.858721,40.9623136 L229.447768,40.9623136 L229.447768,108.211194 L208.858721,108.211194 L208.858721,40.9623136 Z M24.2567879,96.2828362 C24.5098942,96.5957715 24.9470778,96.6601994 25.2692131,96.4393039 C42.6553152,86.9868163 80.9019788,74.9894282 93.699954,72.6930351 L93.699954,108.61617 L0.00460193281,108.61617 L0.00460193281,71.2940301 C9.63644731,65.5415426 35.6557754,53.74204 44.8136217,50.5850748 C44.997699,50.520647 45.0391164,50.6310947 44.8826507,50.7553485 C36.092959,57.6445276 22.3147722,73.9033585 15.5637368,84.354478 C15.2554073,84.8422889 15.273815,84.9987566 15.5177174,85.2978859 L24.2567879,96.2828362 Z M492.756558,28.0905474 C494.537506,28.0905474 495.807639,29.4435325 495.807639,31.3763683 C495.807639,32.8398011 495.057524,33.9949006 493.916245,34.4504977 L495.669581,37.4878111 L494.003682,37.4878111 L492.374597,34.6621892 L490.938794,34.6621892 L490.938794,37.4786071 L489.47538,37.4786071 L489.47538,28.0905474 L492.756558,28.0905474 Z M490.938794,33.2815922 L492.664519,33.2815922 C493.635527,33.2815922 494.348827,32.4900499 494.348827,31.3901743 C494.348827,30.2856966 493.635527,29.4803484 492.669121,29.4803484 L490.938794,29.4803484 L490.938794,33.2815922 Z M492.314772,24.8323384 C489.203866,24.8323384 486.401289,26.8111941 485.21399,29.8393036 C484.020548,32.8610413 484.668516,36.2996121 486.87989,38.6797265 C489.013976,40.9869417 492.373772,41.6921384 495.255407,40.4376867 C498.127013,39.1813434 500,36.2222638 500,32.9410449 C499.995398,28.4633086 496.557754,24.8369404 492.314772,24.8323384 L492.314772,24.8323384 Z M492.314772,39.4942788 C489.802117,39.4942788 487.537966,37.8973882 486.576162,35.4491295 C485.612673,33.0081114 486.135204,30.2307923 487.919926,28.3068409 C489.696272,26.429229 492.369995,25.8677862 494.68937,26.884826 C497.008744,27.8972638 498.52278,30.2902986 498.52278,32.9410449 C498.518178,36.5582091 495.743212,39.4896768 492.314772,39.4942788 L492.314772,39.4942788 Z" transform="translate(0 .355)"/></svg>